<svg xmlns="http://www.w3.org/2000/svg" xmlns:xlink="http://www.w3.org/1999/xlink" width="800" zoomAndPan="magnify" viewBox="0 0 600 599.999999" height="800" preserveAspectRatio="xMidYMid meet" version="1.0"><defs><clipPath id="18d2131bfd"><path d="M 141 318 L 355 318 L 355 366.222656 L 141 366.222656 Z M 141 318 " clip-rule="nonzero"/></clipPath><clipPath id="8ea95a7dd3"><path d="M 464 234 L 520.582031 234 L 520.582031 311 L 464 311 Z M 464 234 " clip-rule="nonzero"/></clipPath><clipPath id="d1546aafe8"><path d="M 258 233.472656 L 324 233.472656 L 324 312 L 258 312 Z M 258 233.472656 " clip-rule="nonzero"/></clipPath><clipPath id="803d3aaa42"><path d="M 79.582031 233.472656 L 146 233.472656 L 146 312 L 79.582031 312 Z M 79.582031 233.472656 " clip-rule="nonzero"/></clipPath></defs><g clip-path="url(#18d2131bfd)"><path fill="#ff9900" d="M 353.105469 337.179688 C 327.511719 355.996094 290.414062 366.035156 258.472656 366.035156 C 213.6875 366.035156 173.367188 349.515625 142.863281 322.035156 C 140.46875 319.875 142.613281 316.929688 145.492188 318.613281 C 178.410156 337.714844 219.113281 349.210938 261.15625 349.210938 C 289.511719 349.210938 320.707031 343.359375 349.386719 331.214844 C 353.71875 329.378906 357.34375 334.046875 353.105469 337.179688 " fill-opacity="1" fill-rule="nonzero"/></g><path fill="#ff9900" d="M 363.746094 325.039062 C 360.488281 320.871094 342.121094 323.070312 333.878906 324.042969 C 331.367188 324.351562 330.980469 322.171875 333.246094 320.601562 C 347.871094 310.332031 371.875 313.296875 374.675781 316.738281 C 377.476562 320.199219 373.949219 344.199219 360.199219 355.652344 C 358.09375 357.414062 356.078125 356.476562 357.019531 354.144531 C 360.105469 346.457031 367.027344 329.226562 363.746094 325.039062 " fill-opacity="1" fill-rule="nonzero"/><path fill="#ffffff" d="M 334.453125 248.109375 L 334.453125 238.128906 C 334.453125 236.617188 335.601562 235.601562 336.984375 235.601562 L 381.789062 235.601562 C 383.226562 235.601562 384.378906 236.636719 384.378906 238.128906 L 384.378906 246.675781 C 384.359375 248.109375 383.148438 249.984375 381.003906 252.945312 L 357.785156 286.007812 C 366.414062 285.800781 375.519531 287.082031 383.339844 291.480469 C 385.105469 292.472656 385.585938 293.925781 385.71875 295.359375 L 385.71875 306.011719 C 385.71875 307.464844 384.109375 309.167969 382.421875 308.289062 C 368.636719 301.078125 350.328125 300.292969 335.085938 308.363281 C 333.53125 309.207031 331.902344 307.523438 331.902344 306.070312 L 331.902344 295.953125 C 331.902344 294.328125 331.921875 291.554688 333.550781 289.089844 L 360.449219 250.613281 L 337.039062 250.613281 C 335.601562 250.613281 334.453125 249.601562 334.453125 248.109375 " fill-opacity="1" fill-rule="nonzero"/><path fill="#ffffff" d="M 171.007812 310.390625 L 157.378906 310.390625 C 156.074219 310.296875 155.039062 309.320312 154.941406 308.078125 L 154.941406 238.300781 C 154.941406 236.902344 156.113281 235.792969 157.570312 235.792969 L 170.28125 235.792969 C 171.601562 235.851562 172.65625 236.863281 172.753906 238.128906 L 172.753906 247.25 L 173.003906 247.25 C 176.320312 238.433594 182.550781 234.320312 190.949219 234.320312 C 199.480469 234.320312 204.808594 238.433594 208.644531 247.25 C 211.941406 238.433594 219.4375 234.320312 227.472656 234.320312 C 233.183594 234.320312 239.433594 236.671875 243.25 241.953125 C 247.5625 247.820312 246.679688 256.351562 246.679688 263.828125 L 246.664062 307.867188 C 246.664062 309.261719 245.492188 310.390625 244.035156 310.390625 L 230.421875 310.390625 C 229.0625 310.296875 227.96875 309.207031 227.96875 307.867188 L 227.96875 270.882812 C 227.96875 267.9375 228.238281 260.597656 227.585938 257.804688 C 226.570312 253.117188 223.523438 251.800781 219.570312 251.800781 C 216.273438 251.800781 212.824219 254 211.421875 257.515625 C 210.023438 261.035156 210.160156 266.925781 210.160156 270.882812 L 210.160156 307.867188 C 210.160156 309.261719 208.988281 310.390625 207.53125 310.390625 L 193.917969 310.390625 C 192.539062 310.296875 191.464844 309.207031 191.464844 307.867188 L 191.445312 270.882812 C 191.445312 263.101562 192.730469 251.648438 183.046875 251.648438 C 173.25 251.648438 173.636719 262.8125 173.636719 270.882812 L 173.636719 307.867188 C 173.636719 309.261719 172.464844 310.390625 171.007812 310.390625 " fill-opacity="1" fill-rule="nonzero"/><path fill="#ffffff" d="M 422.953125 234.320312 C 443.179688 234.320312 454.125 251.648438 454.125 273.675781 C 454.125 294.957031 442.027344 311.84375 422.953125 311.84375 C 403.089844 311.84375 392.277344 294.519531 392.277344 272.929688 C 392.277344 251.207031 403.222656 234.320312 422.953125 234.320312 M 423.066406 248.566406 C 413.019531 248.566406 412.386719 262.222656 412.386719 270.730469 C 412.386719 279.257812 412.253906 297.464844 422.953125 297.464844 C 433.515625 297.464844 434.015625 282.777344 434.015625 273.828125 C 434.015625 267.9375 433.765625 260.902344 431.980469 255.316406 C 430.449219 250.460938 427.398438 248.566406 423.066406 248.566406 " fill-opacity="1" fill-rule="nonzero"/><g clip-path="url(#8ea95a7dd3)"><path fill="#ffffff" d="M 480.355469 310.390625 L 466.78125 310.390625 C 465.417969 310.296875 464.324219 309.207031 464.324219 307.867188 L 464.304688 238.070312 C 464.421875 236.789062 465.550781 235.792969 466.933594 235.792969 L 479.566406 235.792969 C 480.757812 235.851562 481.734375 236.65625 482.003906 237.746094 L 482.003906 248.414062 L 482.25 248.414062 C 486.066406 238.871094 491.417969 234.320312 500.828125 234.320312 C 506.945312 234.320312 512.90625 236.519531 516.742188 242.542969 C 520.308594 248.128906 520.308594 257.515625 520.308594 264.265625 L 520.308594 308.191406 C 520.15625 309.414062 519.023438 310.390625 517.683594 310.390625 L 504.011719 310.390625 C 502.765625 310.296875 501.730469 309.378906 501.597656 308.191406 L 501.597656 270.289062 C 501.597656 262.660156 502.476562 251.492188 493.066406 251.492188 C 489.746094 251.492188 486.699219 253.710938 485.183594 257.078125 C 483.269531 261.339844 483.019531 265.585938 483.019531 270.289062 L 483.019531 307.867188 C 483 309.261719 481.8125 310.390625 480.355469 310.390625 " fill-opacity="1" fill-rule="nonzero"/></g><g clip-path="url(#d1546aafe8)"><path fill="#ffffff" d="M 298.734375 277.058594 L 298.734375 274.117188 C 288.878906 274.117188 278.46875 276.21875 278.46875 287.808594 C 278.46875 293.679688 281.515625 297.65625 286.75 297.65625 C 290.585938 297.65625 294.019531 295.304688 296.183594 291.480469 C 298.867188 286.773438 298.734375 282.355469 298.734375 277.058594 M 312.480469 310.199219 C 311.578125 311.003906 310.277344 311.058594 309.261719 310.523438 C 304.734375 306.777344 303.929688 305.035156 301.4375 301.460938 C 293.960938 309.070312 288.667969 311.347656 278.96875 311.347656 C 267.503906 311.347656 258.566406 304.289062 258.566406 290.160156 C 258.566406 279.125 264.570312 271.609375 273.101562 267.9375 C 280.5 264.6875 290.835938 264.113281 298.734375 263.214844 L 298.734375 261.457031 C 298.734375 258.226562 298.984375 254.398438 297.085938 251.609375 C 295.417969 249.101562 292.234375 248.070312 289.4375 248.070312 C 284.238281 248.070312 279.601562 250.730469 278.46875 256.234375 C 278.238281 257.460938 277.339844 258.664062 276.109375 258.722656 L 262.882812 257.308594 C 261.769531 257.058594 260.542969 256.160156 260.851562 254.457031 C 263.898438 238.472656 278.375 233.652344 291.332031 233.652344 C 297.96875 233.652344 306.632812 235.410156 311.867188 240.421875 C 318.5 246.597656 317.867188 254.839844 317.867188 263.808594 L 317.867188 284.996094 C 317.867188 291.363281 320.515625 294.15625 323.007812 297.597656 C 323.886719 298.820312 324.078125 300.292969 322.96875 301.210938 C 320.1875 303.527344 315.242188 307.828125 312.519531 310.238281 L 312.480469 310.199219 " fill-opacity="1" fill-rule="nonzero"/></g><g clip-path="url(#803d3aaa42)"><path fill="#ffffff" d="M 120.03125 277.058594 L 120.03125 274.117188 C 110.175781 274.117188 99.765625 276.21875 99.765625 287.808594 C 99.765625 293.679688 102.8125 297.65625 108.046875 297.65625 C 111.882812 297.65625 115.3125 295.304688 117.480469 291.480469 C 120.164062 286.773438 120.03125 282.355469 120.03125 277.058594 M 133.777344 310.199219 C 132.875 311.003906 131.570312 311.058594 130.554688 310.523438 C 126.03125 306.777344 125.226562 305.035156 122.734375 301.460938 C 115.253906 309.070312 109.964844 311.347656 100.261719 311.347656 C 88.796875 311.347656 79.863281 304.289062 79.863281 290.160156 C 79.863281 279.125 85.863281 271.609375 94.394531 267.9375 C 101.796875 264.6875 112.128906 264.113281 120.03125 263.214844 L 120.03125 261.457031 C 120.03125 258.226562 120.277344 254.398438 118.378906 251.609375 C 116.710938 249.101562 113.53125 248.070312 110.730469 248.070312 C 105.535156 248.070312 100.894531 250.730469 99.765625 256.234375 C 99.535156 257.460938 98.632812 258.664062 97.40625 258.722656 L 84.175781 257.308594 C 83.066406 257.058594 81.839844 256.160156 82.144531 254.457031 C 85.195312 238.472656 99.667969 233.652344 112.628906 233.652344 C 119.261719 233.652344 127.929688 235.410156 133.164062 240.421875 C 139.796875 246.597656 139.164062 254.839844 139.164062 263.808594 L 139.164062 284.996094 C 139.164062 291.363281 141.808594 294.15625 144.300781 297.597656 C 145.183594 298.820312 145.375 300.292969 144.261719 301.210938 C 141.484375 303.527344 136.535156 307.828125 133.8125 310.238281 L 133.777344 310.199219 " fill-opacity="1" fill-rule="nonzero"/></g></svg>