<svg xmlns="http://www.w3.org/2000/svg" xmlns:xlink="http://www.w3.org/1999/xlink" width="800" zoomAndPan="magnify" viewBox="0 0 600 599.999999" height="800" preserveAspectRatio="xMidYMid meet" version="1.0"><defs><clipPath id="ae1c498182"><path d="M 174.152344 198.273438 L 426.152344 198.273438 L 426.152344 344 L 174.152344 344 Z M 174.152344 198.273438 " clip-rule="nonzero"/></clipPath><clipPath id="6d7ee867fb"><path d="M 253 353 L 302 353 L 302 401.523438 L 253 401.523438 Z M 253 353 " clip-rule="nonzero"/></clipPath><clipPath id="2e08162e07"><path d="M 358 353 L 407 353 L 407 401.523438 L 358 401.523438 Z M 358 353 " clip-rule="nonzero"/></clipPath></defs><g clip-path="url(#ae1c498182)"><path fill="#ffffff" d="M 420.765625 343.757812 L 244.9375 343.757812 C 242.257812 343.757812 240.113281 342.152344 239.578125 339.480469 L 216.527344 208.96875 L 179.539062 208.96875 C 176.320312 208.96875 174.175781 206.832031 174.175781 203.621094 C 174.175781 200.414062 176.320312 198.273438 179.539062 198.273438 L 220.816406 198.273438 C 223.496094 198.273438 225.640625 199.878906 226.175781 202.550781 L 249.761719 333.59375 L 415.40625 333.59375 L 415.40625 269.945312 L 378.417969 269.945312 C 375.203125 269.945312 373.058594 267.804688 373.058594 264.597656 C 373.058594 261.386719 375.203125 259.25 378.417969 259.25 L 420.765625 259.25 C 423.984375 259.25 426.128906 261.386719 426.128906 264.597656 L 426.128906 338.410156 C 426.128906 341.617188 423.984375 343.757812 420.765625 343.757812 Z M 420.765625 343.757812 " fill-opacity="1" fill-rule="nonzero"/></g><g clip-path="url(#6d7ee867fb)"><path fill="#ffffff" d="M 277.636719 401.523438 C 264.234375 401.523438 253.515625 390.824219 253.515625 377.453125 C 253.515625 364.082031 264.234375 353.386719 277.636719 353.386719 C 291.039062 353.386719 301.761719 364.082031 301.761719 377.453125 C 302.296875 390.824219 291.039062 401.523438 277.636719 401.523438 Z M 277.636719 364.082031 C 270.132812 364.082031 264.234375 369.964844 264.234375 377.453125 C 264.234375 384.941406 270.132812 390.824219 277.636719 390.824219 C 285.144531 390.824219 291.039062 384.941406 291.039062 377.453125 C 291.039062 369.964844 285.144531 364.082031 277.636719 364.082031 Z M 277.636719 364.082031 " fill-opacity="1" fill-rule="nonzero"/></g><g clip-path="url(#2e08162e07)"><path fill="#ffffff" d="M 382.707031 401.523438 C 369.304688 401.523438 358.582031 390.824219 358.582031 377.453125 C 358.582031 364.082031 369.304688 353.386719 382.707031 353.386719 C 396.109375 353.386719 406.828125 364.082031 406.828125 377.453125 C 406.828125 390.824219 396.109375 401.523438 382.707031 401.523438 Z M 382.707031 364.082031 C 375.203125 364.082031 369.304688 369.964844 369.304688 377.453125 C 369.304688 384.941406 375.203125 390.824219 382.707031 390.824219 C 390.210938 390.824219 396.109375 384.941406 396.109375 377.453125 C 396.109375 369.964844 390.210938 364.082031 382.707031 364.082031 Z M 382.707031 364.082031 " fill-opacity="1" fill-rule="nonzero"/></g><path fill="#ffffff" d="M 316.234375 288.667969 C 313.019531 288.667969 310.875 286.527344 310.875 283.316406 L 310.875 220.203125 C 310.875 216.992188 313.019531 214.855469 316.234375 214.855469 C 319.449219 214.855469 321.59375 216.992188 321.59375 220.203125 L 321.59375 283.316406 C 321.59375 285.992188 319.449219 288.667969 316.234375 288.667969 Z M 316.234375 288.667969 " fill-opacity="1" fill-rule="nonzero"/><path fill="#ffffff" d="M 316.234375 288.667969 C 314.625 288.667969 313.554688 288.132812 312.480469 287.0625 L 285.144531 259.78125 C 283 257.644531 283 254.433594 285.144531 252.296875 C 287.285156 250.15625 290.503906 250.15625 292.648438 252.296875 L 316.234375 275.828125 L 339.820312 252.296875 C 341.964844 250.15625 345.183594 250.15625 347.328125 252.296875 C 349.46875 254.433594 349.46875 257.644531 347.328125 259.78125 L 319.988281 287.0625 C 319.449219 288.132812 317.84375 288.667969 316.234375 288.667969 Z M 316.234375 288.667969 " fill-opacity="1" fill-rule="nonzero"/></svg>