<svg xmlns="http://www.w3.org/2000/svg" xmlns:xlink="http://www.w3.org/1999/xlink" width="800" zoomAndPan="magnify" viewBox="0 0 600 599.999999" height="800" preserveAspectRatio="xMidYMid meet" version="1.0"><defs><clipPath id="f919992a2f"><path d="M 180 220.199219 L 420 220.199219 L 420 379.949219 L 180 379.949219 Z M 180 220.199219 " clip-rule="nonzero"/></clipPath><clipPath id="66fe88be8f"><path d="M 301 220.199219 L 420 220.199219 L 420 233 L 301 233 Z M 301 220.199219 " clip-rule="nonzero"/></clipPath><clipPath id="5b5fc48fb8"><path d="M 180 367 L 420 367 L 420 379.949219 L 180 379.949219 Z M 180 367 " clip-rule="nonzero"/></clipPath><clipPath id="d15676071f"><path d="M 180 220.199219 L 302 220.199219 L 302 307 L 180 307 Z M 180 220.199219 " clip-rule="nonzero"/></clipPath></defs><g clip-path="url(#f919992a2f)"><path fill="#ffffff" d="M 419.675781 379.972656 L 180.3125 379.972656 L 180.3125 220.222656 L 419.675781 220.222656 L 419.675781 379.972656 " fill-opacity="1" fill-rule="nonzero"/></g><path fill="#d21c31" d="M 419.675781 330.832031 L 180.3125 330.832031 L 180.3125 318.535156 L 419.675781 318.535156 L 419.675781 330.832031 " fill-opacity="1" fill-rule="nonzero"/><path fill="#d21c31" d="M 419.675781 306.292969 L 301.574219 306.292969 L 301.574219 293.941406 L 419.675781 293.941406 L 419.675781 306.292969 " fill-opacity="1" fill-rule="nonzero"/><path fill="#d21c31" d="M 419.675781 281.664062 L 301.574219 281.664062 L 301.574219 269.316406 L 419.675781 269.316406 L 419.675781 281.664062 " fill-opacity="1" fill-rule="nonzero"/><path fill="#d21c31" d="M 419.675781 257.125 L 301.574219 257.125 L 301.574219 244.777344 L 419.675781 244.777344 L 419.675781 257.125 " fill-opacity="1" fill-rule="nonzero"/><g clip-path="url(#66fe88be8f)"><path fill="#d21c31" d="M 419.675781 232.519531 L 301.589844 232.519531 L 301.589844 220.222656 L 419.675781 220.222656 L 419.675781 232.519531 " fill-opacity="1" fill-rule="nonzero"/></g><path fill="#d21c31" d="M 419.675781 355.40625 L 180.3125 355.40625 L 180.3125 343.109375 L 419.675781 343.109375 L 419.675781 355.40625 " fill-opacity="1" fill-rule="nonzero"/><g clip-path="url(#5b5fc48fb8)"><path fill="#d21c31" d="M 419.675781 379.972656 L 180.3125 379.972656 L 180.3125 367.675781 L 419.675781 367.675781 L 419.675781 379.972656 " fill-opacity="1" fill-rule="nonzero"/></g><g clip-path="url(#d15676071f)"><path fill="#363570" d="M 301.875 306.300781 L 180.3125 306.300781 L 180.3125 220.222656 L 301.875 220.222656 L 301.875 306.300781 " fill-opacity="1" fill-rule="nonzero"/></g><path fill="#ffffff" d="M 190.691406 223.652344 L 191.828125 227.144531 L 195.496094 227.144531 L 192.527344 229.304688 L 193.660156 232.796875 L 190.691406 230.636719 L 187.722656 232.796875 L 188.859375 229.304688 L 185.890625 227.144531 L 189.558594 227.144531 L 190.691406 223.652344 " fill-opacity="1" fill-rule="nonzero"/><path fill="#ffffff" d="M 210.785156 223.652344 L 211.917969 227.144531 L 215.589844 227.144531 L 212.621094 229.304688 L 213.753906 232.796875 L 210.785156 230.636719 L 207.816406 232.796875 L 208.949219 229.304688 L 205.980469 227.144531 L 209.652344 227.144531 L 210.785156 223.652344 " fill-opacity="1" fill-rule="nonzero"/><path fill="#ffffff" d="M 230.878906 223.652344 L 232.011719 227.144531 L 235.679688 227.144531 L 232.710938 229.304688 L 233.847656 232.796875 L 230.878906 230.636719 L 227.910156 232.796875 L 229.042969 229.304688 L 226.074219 227.144531 L 229.742188 227.144531 L 230.878906 223.652344 " fill-opacity="1" fill-rule="nonzero"/><path fill="#ffffff" d="M 250.96875 223.652344 L 252.105469 227.144531 L 255.773438 227.144531 L 252.804688 229.304688 L 253.9375 232.796875 L 250.96875 230.636719 L 248 232.796875 L 249.136719 229.304688 L 246.167969 227.144531 L 249.835938 227.144531 L 250.96875 223.652344 " fill-opacity="1" fill-rule="nonzero"/><path fill="#ffffff" d="M 271.0625 223.652344 L 272.195312 227.144531 L 275.867188 227.144531 L 272.898438 229.304688 L 274.03125 232.796875 L 271.0625 230.636719 L 268.09375 232.796875 L 269.226562 229.304688 L 266.257812 227.144531 L 269.929688 227.144531 L 271.0625 223.652344 " fill-opacity="1" fill-rule="nonzero"/><path fill="#ffffff" d="M 291.15625 223.652344 L 292.289062 227.144531 L 295.957031 227.144531 L 292.988281 229.304688 L 294.125 232.796875 L 291.15625 230.636719 L 288.1875 232.796875 L 289.320312 229.304688 L 286.351562 227.144531 L 290.019531 227.144531 L 291.15625 223.652344 " fill-opacity="1" fill-rule="nonzero"/><path fill="#ffffff" d="M 200.75 232.246094 L 201.886719 235.738281 L 205.554688 235.738281 L 202.585938 237.898438 L 203.71875 241.390625 L 200.75 239.230469 L 197.78125 241.390625 L 198.917969 237.898438 L 195.949219 235.738281 L 199.617188 235.738281 L 200.75 232.246094 " fill-opacity="1" fill-rule="nonzero"/><path fill="#ffffff" d="M 220.84375 232.246094 L 221.976562 235.738281 L 225.648438 235.738281 L 222.679688 237.898438 L 223.8125 241.390625 L 220.84375 239.230469 L 217.875 241.390625 L 219.007812 237.898438 L 216.039062 235.738281 L 219.710938 235.738281 L 220.84375 232.246094 " fill-opacity="1" fill-rule="nonzero"/><path fill="#ffffff" d="M 240.9375 232.246094 L 242.070312 235.738281 L 245.738281 235.738281 L 242.769531 237.898438 L 243.90625 241.390625 L 240.9375 239.230469 L 237.96875 241.390625 L 239.101562 237.898438 L 236.132812 235.738281 L 239.800781 235.738281 L 240.9375 232.246094 " fill-opacity="1" fill-rule="nonzero"/><path fill="#ffffff" d="M 261.027344 232.246094 L 262.164062 235.738281 L 265.832031 235.738281 L 262.863281 237.898438 L 263.996094 241.390625 L 261.027344 239.230469 L 258.058594 241.390625 L 259.195312 237.898438 L 256.226562 235.738281 L 259.894531 235.738281 L 261.027344 232.246094 " fill-opacity="1" fill-rule="nonzero"/><path fill="#ffffff" d="M 281.121094 232.246094 L 282.253906 235.738281 L 285.925781 235.738281 L 282.957031 237.898438 L 284.089844 241.390625 L 281.121094 239.230469 L 278.152344 241.390625 L 279.285156 237.898438 L 276.316406 235.738281 L 279.988281 235.738281 L 281.121094 232.246094 " fill-opacity="1" fill-rule="nonzero"/><path fill="#ffffff" d="M 200.75 249.535156 L 201.886719 253.027344 L 205.554688 253.027344 L 202.585938 255.1875 L 203.71875 258.679688 L 200.75 256.523438 L 197.78125 258.679688 L 198.917969 255.1875 L 195.949219 253.027344 L 199.617188 253.027344 L 200.75 249.535156 " fill-opacity="1" fill-rule="nonzero"/><path fill="#ffffff" d="M 220.84375 249.535156 L 221.976562 253.027344 L 225.648438 253.027344 L 222.679688 255.1875 L 223.8125 258.679688 L 220.84375 256.523438 L 217.875 258.679688 L 219.007812 255.1875 L 216.039062 253.027344 L 219.710938 253.027344 L 220.84375 249.535156 " fill-opacity="1" fill-rule="nonzero"/><path fill="#ffffff" d="M 240.9375 249.535156 L 242.070312 253.027344 L 245.738281 253.027344 L 242.769531 255.1875 L 243.90625 258.679688 L 240.9375 256.523438 L 237.96875 258.679688 L 239.101562 255.1875 L 236.132812 253.027344 L 239.800781 253.027344 L 240.9375 249.535156 " fill-opacity="1" fill-rule="nonzero"/><path fill="#ffffff" d="M 261.027344 249.535156 L 262.164062 253.027344 L 265.832031 253.027344 L 262.863281 255.1875 L 263.996094 258.679688 L 261.027344 256.523438 L 258.058594 258.679688 L 259.195312 255.1875 L 256.226562 253.027344 L 259.894531 253.027344 L 261.027344 249.535156 " fill-opacity="1" fill-rule="nonzero"/><path fill="#ffffff" d="M 281.121094 249.535156 L 282.253906 253.027344 L 285.925781 253.027344 L 282.957031 255.1875 L 284.089844 258.679688 L 281.121094 256.523438 L 278.152344 258.679688 L 279.285156 255.1875 L 276.316406 253.027344 L 279.988281 253.027344 L 281.121094 249.535156 " fill-opacity="1" fill-rule="nonzero"/><path fill="#ffffff" d="M 200.75 266.824219 L 201.886719 270.316406 L 205.554688 270.316406 L 202.585938 272.476562 L 203.71875 275.96875 L 200.75 273.8125 L 197.78125 275.96875 L 198.917969 272.476562 L 195.949219 270.316406 L 199.617188 270.316406 L 200.75 266.824219 " fill-opacity="1" fill-rule="nonzero"/><path fill="#ffffff" d="M 220.84375 266.824219 L 221.976562 270.316406 L 225.648438 270.316406 L 222.679688 272.476562 L 223.8125 275.96875 L 220.84375 273.8125 L 217.875 275.96875 L 219.007812 272.476562 L 216.039062 270.316406 L 219.710938 270.316406 L 220.84375 266.824219 " fill-opacity="1" fill-rule="nonzero"/><path fill="#ffffff" d="M 240.9375 266.824219 L 242.070312 270.316406 L 245.738281 270.316406 L 242.769531 272.476562 L 243.90625 275.96875 L 240.9375 273.8125 L 237.96875 275.96875 L 239.101562 272.476562 L 236.132812 270.316406 L 239.800781 270.316406 L 240.9375 266.824219 " fill-opacity="1" fill-rule="nonzero"/><path fill="#ffffff" d="M 261.027344 266.824219 L 262.164062 270.316406 L 265.832031 270.316406 L 262.863281 272.476562 L 263.996094 275.96875 L 261.027344 273.8125 L 258.058594 275.96875 L 259.195312 272.476562 L 256.226562 270.316406 L 259.894531 270.316406 L 261.027344 266.824219 " fill-opacity="1" fill-rule="nonzero"/><path fill="#ffffff" d="M 281.121094 266.824219 L 282.253906 270.316406 L 285.925781 270.316406 L 282.957031 272.476562 L 284.089844 275.96875 L 281.121094 273.8125 L 278.152344 275.96875 L 279.285156 272.476562 L 276.316406 270.316406 L 279.988281 270.316406 L 281.121094 266.824219 " fill-opacity="1" fill-rule="nonzero"/><path fill="#ffffff" d="M 200.75 284.113281 L 201.886719 287.609375 L 205.554688 287.609375 L 202.585938 289.765625 L 203.71875 293.261719 L 200.75 291.101562 L 197.78125 293.261719 L 198.917969 289.765625 L 195.949219 287.609375 L 199.617188 287.609375 L 200.75 284.113281 " fill-opacity="1" fill-rule="nonzero"/><path fill="#ffffff" d="M 220.84375 284.113281 L 221.976562 287.609375 L 225.648438 287.609375 L 222.679688 289.765625 L 223.8125 293.261719 L 220.84375 291.101562 L 217.875 293.261719 L 219.007812 289.765625 L 216.039062 287.609375 L 219.710938 287.609375 L 220.84375 284.113281 " fill-opacity="1" fill-rule="nonzero"/><path fill="#ffffff" d="M 240.9375 284.113281 L 242.070312 287.609375 L 245.738281 287.609375 L 242.769531 289.765625 L 243.90625 293.261719 L 240.9375 291.101562 L 237.96875 293.261719 L 239.101562 289.765625 L 236.132812 287.609375 L 239.800781 287.609375 L 240.9375 284.113281 " fill-opacity="1" fill-rule="nonzero"/><path fill="#ffffff" d="M 261.027344 284.113281 L 262.164062 287.609375 L 265.832031 287.609375 L 262.863281 289.765625 L 263.996094 293.261719 L 261.027344 291.101562 L 258.058594 293.261719 L 259.195312 289.765625 L 256.226562 287.609375 L 259.894531 287.609375 L 261.027344 284.113281 " fill-opacity="1" fill-rule="nonzero"/><path fill="#ffffff" d="M 281.121094 284.113281 L 282.253906 287.609375 L 285.925781 287.609375 L 282.957031 289.765625 L 284.089844 293.261719 L 281.121094 291.101562 L 278.152344 293.261719 L 279.285156 289.765625 L 276.316406 287.609375 L 279.988281 287.609375 L 281.121094 284.113281 " fill-opacity="1" fill-rule="nonzero"/><path fill="#ffffff" d="M 190.691406 240.90625 L 191.828125 244.402344 L 195.496094 244.402344 L 192.527344 246.558594 L 193.660156 250.054688 L 190.691406 247.894531 L 187.722656 250.054688 L 188.859375 246.558594 L 185.890625 244.402344 L 189.558594 244.402344 L 190.691406 240.90625 " fill-opacity="1" fill-rule="nonzero"/><path fill="#ffffff" d="M 210.785156 240.90625 L 211.917969 244.402344 L 215.589844 244.402344 L 212.621094 246.558594 L 213.753906 250.054688 L 210.785156 247.894531 L 207.816406 250.054688 L 208.949219 246.558594 L 205.980469 244.402344 L 209.652344 244.402344 L 210.785156 240.90625 " fill-opacity="1" fill-rule="nonzero"/><path fill="#ffffff" d="M 230.878906 240.90625 L 232.011719 244.402344 L 235.679688 244.402344 L 232.710938 246.558594 L 233.847656 250.054688 L 230.878906 247.894531 L 227.910156 250.054688 L 229.042969 246.558594 L 226.074219 244.402344 L 229.742188 244.402344 L 230.878906 240.90625 " fill-opacity="1" fill-rule="nonzero"/><path fill="#ffffff" d="M 250.96875 240.90625 L 252.105469 244.402344 L 255.773438 244.402344 L 252.804688 246.558594 L 253.9375 250.054688 L 250.96875 247.894531 L 248 250.054688 L 249.136719 246.558594 L 246.167969 244.402344 L 249.835938 244.402344 L 250.96875 240.90625 " fill-opacity="1" fill-rule="nonzero"/><path fill="#ffffff" d="M 271.0625 240.90625 L 272.195312 244.402344 L 275.867188 244.402344 L 272.898438 246.558594 L 274.03125 250.054688 L 271.0625 247.894531 L 268.09375 250.054688 L 269.226562 246.558594 L 266.257812 244.402344 L 269.929688 244.402344 L 271.0625 240.90625 " fill-opacity="1" fill-rule="nonzero"/><path fill="#ffffff" d="M 291.15625 240.90625 L 292.289062 244.402344 L 295.957031 244.402344 L 292.988281 246.558594 L 294.125 250.054688 L 291.15625 247.894531 L 288.1875 250.054688 L 289.320312 246.558594 L 286.351562 244.402344 L 290.019531 244.402344 L 291.15625 240.90625 " fill-opacity="1" fill-rule="nonzero"/><path fill="#ffffff" d="M 190.691406 258.164062 L 191.828125 261.65625 L 195.496094 261.65625 L 192.527344 263.816406 L 193.660156 267.308594 L 190.691406 265.148438 L 187.722656 267.308594 L 188.859375 263.816406 L 185.890625 261.65625 L 189.558594 261.65625 L 190.691406 258.164062 " fill-opacity="1" fill-rule="nonzero"/><path fill="#ffffff" d="M 210.785156 258.164062 L 211.917969 261.65625 L 215.589844 261.65625 L 212.621094 263.816406 L 213.753906 267.308594 L 210.785156 265.148438 L 207.816406 267.308594 L 208.949219 263.816406 L 205.980469 261.65625 L 209.652344 261.65625 L 210.785156 258.164062 " fill-opacity="1" fill-rule="nonzero"/><path fill="#ffffff" d="M 230.878906 258.164062 L 232.011719 261.65625 L 235.679688 261.65625 L 232.710938 263.816406 L 233.847656 267.308594 L 230.878906 265.148438 L 227.910156 267.308594 L 229.042969 263.816406 L 226.074219 261.65625 L 229.742188 261.65625 L 230.878906 258.164062 " fill-opacity="1" fill-rule="nonzero"/><path fill="#ffffff" d="M 250.96875 258.164062 L 252.105469 261.65625 L 255.773438 261.65625 L 252.804688 263.816406 L 253.9375 267.308594 L 250.96875 265.148438 L 248 267.308594 L 249.136719 263.816406 L 246.167969 261.65625 L 249.835938 261.65625 L 250.96875 258.164062 " fill-opacity="1" fill-rule="nonzero"/><path fill="#ffffff" d="M 271.0625 258.164062 L 272.195312 261.65625 L 275.867188 261.65625 L 272.898438 263.816406 L 274.03125 267.308594 L 271.0625 265.148438 L 268.09375 267.308594 L 269.226562 263.816406 L 266.257812 261.65625 L 269.929688 261.65625 L 271.0625 258.164062 " fill-opacity="1" fill-rule="nonzero"/><path fill="#ffffff" d="M 291.15625 258.164062 L 292.289062 261.65625 L 295.957031 261.65625 L 292.988281 263.816406 L 294.125 267.308594 L 291.15625 265.148438 L 288.1875 267.308594 L 289.320312 263.816406 L 286.351562 261.65625 L 290.019531 261.65625 L 291.15625 258.164062 " fill-opacity="1" fill-rule="nonzero"/><path fill="#ffffff" d="M 190.691406 275.421875 L 191.828125 278.910156 L 195.496094 278.910156 L 192.527344 281.074219 L 193.660156 284.5625 L 190.691406 282.40625 L 187.722656 284.5625 L 188.859375 281.074219 L 185.890625 278.910156 L 189.558594 278.910156 L 190.691406 275.421875 " fill-opacity="1" fill-rule="nonzero"/><path fill="#ffffff" d="M 210.785156 275.421875 L 211.917969 278.910156 L 215.589844 278.910156 L 212.621094 281.074219 L 213.753906 284.5625 L 210.785156 282.40625 L 207.816406 284.5625 L 208.949219 281.074219 L 205.980469 278.910156 L 209.652344 278.910156 L 210.785156 275.421875 " fill-opacity="1" fill-rule="nonzero"/><path fill="#ffffff" d="M 230.878906 275.421875 L 232.011719 278.910156 L 235.679688 278.910156 L 232.710938 281.074219 L 233.847656 284.5625 L 230.878906 282.40625 L 227.910156 284.5625 L 229.042969 281.074219 L 226.074219 278.910156 L 229.742188 278.910156 L 230.878906 275.421875 " fill-opacity="1" fill-rule="nonzero"/><path fill="#ffffff" d="M 250.96875 275.421875 L 252.105469 278.910156 L 255.773438 278.910156 L 252.804688 281.074219 L 253.9375 284.5625 L 250.96875 282.40625 L 248 284.5625 L 249.136719 281.074219 L 246.167969 278.910156 L 249.835938 278.910156 L 250.96875 275.421875 " fill-opacity="1" fill-rule="nonzero"/><path fill="#ffffff" d="M 271.0625 275.421875 L 272.195312 278.910156 L 275.867188 278.910156 L 272.898438 281.074219 L 274.03125 284.5625 L 271.0625 282.40625 L 268.09375 284.5625 L 269.226562 281.074219 L 266.257812 278.910156 L 269.929688 278.910156 L 271.0625 275.421875 " fill-opacity="1" fill-rule="nonzero"/><path fill="#ffffff" d="M 291.15625 275.421875 L 292.289062 278.910156 L 295.957031 278.910156 L 292.988281 281.074219 L 294.125 284.5625 L 291.15625 282.40625 L 288.1875 284.5625 L 289.320312 281.074219 L 286.351562 278.910156 L 290.019531 278.910156 L 291.15625 275.421875 " fill-opacity="1" fill-rule="nonzero"/><path fill="#ffffff" d="M 190.691406 292.675781 L 191.828125 296.167969 L 195.496094 296.167969 L 192.527344 298.328125 L 193.660156 301.820312 L 190.691406 299.660156 L 187.722656 301.820312 L 188.859375 298.328125 L 185.890625 296.167969 L 189.558594 296.167969 L 190.691406 292.675781 " fill-opacity="1" fill-rule="nonzero"/><path fill="#ffffff" d="M 210.785156 292.675781 L 211.917969 296.167969 L 215.589844 296.167969 L 212.621094 298.328125 L 213.753906 301.820312 L 210.785156 299.660156 L 207.816406 301.820312 L 208.949219 298.328125 L 205.980469 296.167969 L 209.652344 296.167969 L 210.785156 292.675781 " fill-opacity="1" fill-rule="nonzero"/><path fill="#ffffff" d="M 230.878906 292.675781 L 232.011719 296.167969 L 235.679688 296.167969 L 232.710938 298.328125 L 233.847656 301.820312 L 230.878906 299.660156 L 227.910156 301.820312 L 229.042969 298.328125 L 226.074219 296.167969 L 229.742188 296.167969 L 230.878906 292.675781 " fill-opacity="1" fill-rule="nonzero"/><path fill="#ffffff" d="M 250.96875 292.675781 L 252.105469 296.167969 L 255.773438 296.167969 L 252.804688 298.328125 L 253.9375 301.820312 L 250.96875 299.660156 L 248 301.820312 L 249.136719 298.328125 L 246.167969 296.167969 L 249.835938 296.167969 L 250.96875 292.675781 " fill-opacity="1" fill-rule="nonzero"/><path fill="#ffffff" d="M 271.0625 292.675781 L 272.195312 296.167969 L 275.867188 296.167969 L 272.898438 298.328125 L 274.03125 301.820312 L 271.0625 299.660156 L 268.09375 301.820312 L 269.226562 298.328125 L 266.257812 296.167969 L 269.929688 296.167969 L 271.0625 292.675781 " fill-opacity="1" fill-rule="nonzero"/><path fill="#ffffff" d="M 291.15625 292.675781 L 292.289062 296.167969 L 295.957031 296.167969 L 292.988281 298.328125 L 294.125 301.820312 L 291.15625 299.660156 L 288.1875 301.820312 L 289.320312 298.328125 L 286.351562 296.167969 L 290.019531 296.167969 L 291.15625 292.675781 " fill-opacity="1" fill-rule="nonzero"/></svg>