<svg xmlns="http://www.w3.org/2000/svg" xmlns:xlink="http://www.w3.org/1999/xlink" width="800" zoomAndPan="magnify" viewBox="0 0 600 599.999999" height="800" preserveAspectRatio="xMidYMid meet" version="1.0"><defs><clipPath id="76a74df60b"><path d="M 221.101562 180 L 378.601562 180 L 378.601562 420 L 221.101562 420 Z M 221.101562 180 " clip-rule="nonzero"/></clipPath></defs><g clip-path="url(#76a74df60b)"><path fill="#ffffff" d="M 299.851562 404.328125 L 365.230469 281.726562 C 366.476562 278.148438 367.394531 274.460938 368.046875 270.71875 C 368.695312 266.921875 369.019531 263.019531 369.019531 259.007812 C 369.019531 239.863281 361.28125 222.511719 348.777344 209.988281 C 336.222656 197.460938 318.957031 189.707031 299.851562 189.707031 C 280.746094 189.707031 263.480469 197.460938 250.921875 209.988281 C 238.417969 222.511719 230.679688 239.863281 230.679688 259.007812 C 230.679688 263.019531 231.003906 266.921875 231.652344 270.71875 C 232.304688 274.460938 233.222656 278.148438 234.46875 281.726562 Z M 299.851562 215.898438 C 311.972656 215.898438 322.90625 220.832031 330.808594 228.804688 C 338.765625 236.71875 343.691406 247.671875 343.691406 259.820312 C 343.691406 262.3125 343.472656 264.753906 343.039062 267.195312 C 342.609375 269.632812 342.011719 272.019531 341.199219 274.351562 C 338.167969 283.027344 332.488281 290.457031 325.125 295.660156 C 317.980469 300.703125 309.265625 303.6875 299.851562 303.6875 C 290.433594 303.6875 281.71875 300.703125 274.574219 295.660156 C 267.214844 290.457031 261.585938 283.027344 258.554688 274.351562 L 258.5 274.40625 C 257.6875 272.074219 257.09375 269.6875 256.660156 267.195312 C 256.226562 264.753906 256.007812 262.3125 256.007812 259.820312 C 256.007812 247.671875 260.933594 236.71875 268.890625 228.804688 C 276.792969 220.832031 287.726562 215.898438 299.851562 215.898438 Z M 324.097656 235.527344 C 317.875 229.34375 309.320312 225.496094 299.851562 225.496094 C 290.378906 225.496094 281.828125 229.34375 275.601562 235.527344 C 269.433594 241.761719 265.589844 250.332031 265.589844 259.820312 C 265.589844 261.824219 265.753906 263.777344 266.078125 265.621094 C 266.402344 267.519531 266.886719 269.417969 267.484375 271.207031 C 269.867188 277.984375 274.304688 283.785156 280.039062 287.855469 C 285.617188 291.8125 292.433594 294.144531 299.851562 294.144531 C 307.265625 294.144531 314.085938 291.8125 319.660156 287.855469 C 325.394531 283.785156 329.835938 277.984375 332.214844 271.207031 C 332.8125 269.417969 333.296875 267.574219 333.625 265.621094 C 333.949219 263.777344 334.109375 261.824219 334.109375 259.820312 C 334.109375 250.332031 330.265625 241.761719 324.097656 235.527344 Z M 373.835938 285.792969 L 304.070312 416.636719 C 303.636719 417.503906 302.988281 418.210938 302.070312 418.644531 C 299.796875 419.890625 296.875 419.023438 295.628906 416.691406 L 226.023438 286.117188 C 225.863281 285.792969 225.699219 285.523438 225.59375 285.140625 C 224.132812 281.019531 222.996094 276.683594 222.238281 272.292969 C 221.53125 267.898438 221.101562 263.507812 221.101562 259.007812 C 221.101562 237.207031 229.921875 217.523438 244.210938 203.210938 C 258.445312 188.949219 278.09375 180.109375 299.851562 180.109375 C 321.609375 180.109375 341.253906 188.949219 355.488281 203.210938 C 369.777344 217.523438 378.601562 237.207031 378.601562 259.007812 C 378.601562 263.507812 378.167969 267.898438 377.464844 272.292969 C 376.707031 276.683594 375.570312 281.019531 374.109375 285.140625 C 374.054688 285.359375 373.945312 285.578125 373.835938 285.792969 Z M 373.835938 285.792969 " fill-opacity="1" fill-rule="nonzero"/></g></svg>